# xmcd
#
# Track frame offsets: 
#        150
#        18042
#        25965
#        42307
#        53405
#        66972
#        81932
#        94117
#        110590
#        120567
#        135977
#        145865
#        158227
#        169740
#        179912
#        192170
#        208972
#        222980
#        237540
#        249565
#        262035
#        272647
#        287567
#        297612
#        308647
#
# Disc length: 4261 seconds
#
# Revision: 4
# Processed by: cddbd v1.5.2PL0 Copyright (c) Steve Scherf et al.
# Submitted via: ExactAudioCopyFreeDBPlugin 1.0
#
DISCID=7c10a319
DTITLE=Buddy Guy - The Complete Chess Studio Recordings [CD2]
DYEAR=1997
DGENRE=Blues
TTITLE0=Worried Mind (aka Stick Around)
TTITLE1=Untitled Instrumental
TTITLE2=Moanin'
TTITLE3=I Dig Your Wife (unedited)
TTITLE4=My Time After Awhile
TTITLE5=Night Flight
TTITLE6=Crazy Love (Crazy Music)
TTITLE7=Every Girl I See
TTITLE8=Too Many Ways
TTITLE9=Leave My Girl Alone
TTITLE10=Got To Use Your Head
TTITLE11=Keep It To Myself (aka Keep It To Yourself)
TTITLE12=My Mother
TTITLE13=She Suits Me to A Tee
TTITLE14=Mother-In-Law Blues
TTITLE15=Buddy's Groove
TTITLE16=Going To School
TTITLE17=I Cry And I Sing The Blues
TTITLE18=Goin' Home
TTITLE19=I Suffer With The Blues
TTITLE20=Lip Lap Louie
TTITLE21=My Time After Awhile (alternate vocal and mix)
TTITLE22=Too Many Ways (alternate with background vocal)
TTITLE23=Keep it To Myself (alternate with organ overdub)
TTITLE24=I Didn't Know My Mother (She Suits Me To A Tee alternate)
EXTD=YEAR: 1997
EXTT0=
EXTT1=
EXTT2=
EXTT3=
EXTT4=
EXTT5=
EXTT6=
EXTT7=
EXTT8=
EXTT9=
EXTT10=
EXTT11=
EXTT12=
EXTT13=
EXTT14=
EXTT15=
EXTT16=
EXTT17=
EXTT18=
EXTT19=
EXTT20=
EXTT21=
EXTT22=
EXTT23=
EXTT24=
PLAYORDER=
